<?xml version="1.0" encoding="utf-8"?>
<!-- Generator: Adobe Illustrator 15.0.2, SVG Export Plug-In . SVG Version: 6.00 Build 0)  -->
<!DOCTYPE svg PUBLIC "-//W3C//DTD SVG 1.1//EN" "http://www.w3.org/Graphics/SVG/1.1/DTD/svg11.dtd">
<svg version="1.1" id="Layer_1" xmlns="http://www.w3.org/2000/svg" xmlns:xlink="http://www.w3.org/1999/xlink" x="0px" y="0px"
	 width="200px" height="40.25px" viewBox="79.999 22.88 200 40.25" enable-background="new 79.999 22.88 200 40.25"
	 xml:space="preserve">
<g>
	<g enable-background="new    ">
		<path fill="#FFFFFF" d="M186.959,42.358c0,0.425-0.098,0.814-0.293,1.168c-0.194,0.354-0.456,0.661-0.783,0.916
			c-0.328,0.258-0.713,0.457-1.155,0.599c-0.444,0.142-0.913,0.213-1.409,0.213h-18.226c-0.336,0-0.647-0.115-0.93-0.346
			c-0.283-0.23-0.425-0.496-0.425-0.797v-1.833c0-0.283,0.146-0.531,0.438-0.744c0.292-0.213,0.588-0.319,0.89-0.319h13.921
			c0.407,0,0.695-0.08,0.863-0.239c0.168-0.16,0.253-0.373,0.253-0.638c0-0.23-0.076-0.451-0.226-0.664
			c-0.15-0.213-0.448-0.319-0.89-0.319h-9.618c-1.063,0-1.936-0.27-2.617-0.811c-0.682-0.54-1.022-1.235-1.022-2.085v-3.48
			c0-0.425,0.097-0.815,0.292-1.169c0.194-0.354,0.456-0.659,0.783-0.916c0.328-0.256,0.713-0.457,1.156-0.598
			c0.443-0.142,0.912-0.213,1.408-0.213h16.366c0.335,0,0.624,0.115,0.862,0.345c0.239,0.23,0.359,0.497,0.359,0.797v1.834
			c0,0.283-0.146,0.531-0.438,0.743c-0.292,0.213-0.589,0.319-0.89,0.319h-12.088c-0.408,0-0.696,0.066-0.864,0.199
			c-0.168,0.134-0.252,0.351-0.252,0.651c0,0.336,0.088,0.567,0.265,0.691c0.177,0.124,0.46,0.186,0.851,0.186h9.776
			c0.515,0,0.992,0.071,1.436,0.213c0.442,0.142,0.828,0.34,1.156,0.597c0.326,0.257,0.584,0.562,0.771,0.917
			c0.185,0.355,0.278,0.745,0.278,1.169v3.613H186.959z"/>
		<path fill="#FFFFFF" d="M193.469,45.254c-0.976,0-1.772-0.256-2.393-0.771c-0.619-0.513-0.929-1.248-0.929-2.204V32.98
			c0-0.425,0.097-0.815,0.292-1.169c0.194-0.354,0.456-0.659,0.782-0.916c0.329-0.256,0.714-0.457,1.156-0.598
			c0.442-0.142,0.911-0.213,1.408-0.213h15.941c0.496,0,0.965,0.071,1.407,0.213c0.443,0.141,0.828,0.341,1.156,0.598
			c0.327,0.256,0.59,0.562,0.784,0.916c0.194,0.355,0.293,0.745,0.293,1.169v9.298c0,0.956-0.312,1.692-0.931,2.205
			c-0.62,0.514-1.418,0.771-2.391,0.771H193.469L193.469,45.254z M205.158,34.123h-6.801c-0.515,0-0.904,0.12-1.17,0.358
			c-0.267,0.24-0.398,0.624-0.398,1.155v4.092c0,0.992,0.398,1.488,1.195,1.488h7.546c0.796,0,1.195-0.496,1.195-1.488v-4.092
			c0-0.531-0.133-0.916-0.399-1.155C206.062,34.242,205.671,34.123,205.158,34.123z"/>
		<path fill="#FFFFFF" d="M223.197,39.622c0,1.062,0.522,1.594,1.567,1.594h2.125c0.106,0,0.235,0.031,0.386,0.092
			c0.149,0.062,0.302,0.142,0.452,0.24c0.15,0.097,0.293,0.199,0.425,0.305c0.134,0.105,0.253,0.213,0.359,0.319l2.285,2.285
			c0.035,0.036,0.097,0.11,0.186,0.227c0.088,0.115,0.134,0.189,0.134,0.225c0,0.143-0.049,0.235-0.146,0.279
			c-0.099,0.044-0.218,0.066-0.359,0.066h-10.414c-0.496,0-0.966-0.07-1.408-0.212c-0.443-0.143-0.829-0.342-1.155-0.6
			c-0.328-0.255-0.59-0.56-0.784-0.916c-0.195-0.354-0.293-0.743-0.293-1.167v-9.831c0-1.629,0.868-2.444,2.605-2.444h6.694
			c0.956,0,1.858,0.204,2.709,0.611c0.85,0.408,1.771,1.099,2.764,2.073l5.26,5.26v-6.377c0-0.513,0.13-0.903,0.385-1.169
			c0.258-0.266,0.546-0.398,0.864-0.398h4.065c0.284,0,0.576,0.137,0.878,0.412c0.3,0.275,0.451,0.607,0.451,0.996v12.301
			c0,0.354-0.115,0.687-0.344,0.997c-0.231,0.309-0.551,0.464-0.957,0.464h-5.713c-0.09,0-0.204-0.017-0.346-0.054
			c-0.142-0.034-0.288-0.079-0.438-0.133c-0.149-0.053-0.283-0.109-0.397-0.172c-0.116-0.062-0.2-0.129-0.254-0.198l-10.573-9.937
			c-0.178-0.124-0.515-0.31-1.01-0.558v5.419H223.197z"/>
		<path fill="#FFFFFF" d="M253.06,31.651v12.116c0,0.406-0.129,0.758-0.385,1.049c-0.257,0.293-0.546,0.438-0.863,0.438h-4.172
			c-0.283,0-0.557-0.15-0.822-0.451c-0.267-0.303-0.399-0.647-0.399-1.036V31.492c0-0.389,0.15-0.721,0.451-0.996
			s0.594-0.412,0.878-0.412h4.064c0.317,0,0.607,0.133,0.864,0.398C252.931,30.748,253.06,31.137,253.06,31.651z"/>
		<path fill="#FFFFFF" d="M256.779,32.98c0-0.425,0.098-0.815,0.292-1.169c0.194-0.354,0.456-0.659,0.784-0.916
			c0.327-0.256,0.713-0.457,1.156-0.598c0.442-0.142,0.911-0.213,1.407-0.213h18.226c0.336,0,0.647,0.115,0.931,0.345
			c0.283,0.23,0.424,0.497,0.424,0.797v1.834c0,0.283-0.146,0.531-0.438,0.743c-0.291,0.213-0.588,0.319-0.89,0.319h-13.684
			c-0.514,0-0.902,0.12-1.168,0.359c-0.267,0.239-0.399,0.624-0.399,1.155v4.092c0,0.53,0.133,0.912,0.399,1.142
			c0.266,0.231,0.654,0.346,1.168,0.346h13.683c0.302,0,0.599,0.106,0.89,0.319c0.292,0.212,0.438,0.46,0.438,0.744v1.833
			c0,0.301-0.142,0.567-0.425,0.797c-0.283,0.23-0.594,0.345-0.931,0.345h-18.226c-0.495,0-0.965-0.069-1.407-0.212
			c-0.442-0.142-0.829-0.341-1.156-0.599c-0.328-0.255-0.589-0.561-0.784-0.916c-0.193-0.354-0.292-0.744-0.292-1.168L256.779,32.98
			L256.779,32.98z"/>
	</g>
	<path fill="#FFFFFF" d="M121.899,48.41c-0.126-0.219-0.281-0.453-0.469-0.703l-6.184-7.542c0.875-0.031,1.686-0.179,2.436-0.445
		c0.75-0.265,1.389-0.625,1.921-1.078c0.53-0.452,0.944-0.984,1.241-1.592c0.297-0.608,0.445-1.272,0.445-1.991v-7.074
		c0-0.749-0.172-1.436-0.516-2.061c-0.344-0.625-0.804-1.163-1.382-1.616c-0.579-0.453-1.257-0.804-2.038-1.055
		c-0.781-0.249-1.608-0.374-2.483-0.374H79.999c0.817,4.158,1.266,8.665,1.266,13.374c0,4.71-0.448,9.216-1.266,13.374h9.858
		c0.562,0,1.069-0.234,1.522-0.703c0.453-0.468,0.679-1.153,0.679-2.061v-3.887c0-1.78,0.827-2.717,2.482-2.811h5.714l6.934,8.479
		c0.218,0.25,0.531,0.476,0.938,0.679c0.405,0.203,0.718,0.305,0.936,0.305h11.899c0.75-0.03,1.125-0.25,1.125-0.656
		C122.086,48.816,122.023,48.628,121.899,48.41z M109.017,32.717c-0.344,0.219-0.874,0.328-1.593,0.328H94.168
		c-1.437,0-2.155-0.516-2.155-1.547c0-0.53,0.171-0.914,0.515-1.147C92.872,30.117,93.497,30,94.401,30h12.835
		c0.906,0,1.515,0.102,1.827,0.305c0.312,0.203,0.469,0.586,0.469,1.147C109.532,32.077,109.36,32.499,109.017,32.717z"/>
	<g>
		<rect x="178.567" y="47.498" fill="#FFFFFF" width="2" height="2.099"/>
		<rect x="184.947" y="47.498" fill="#FFFFFF" width="2.523" height="2.099"/>
		<rect x="191.152" y="47.498" fill="#FFFFFF" width="2.947" height="2.099"/>
		<rect x="172.013" y="47.498" fill="#FFFFFF" width="1.388" height="2.099"/>
		<rect x="165.196" y="47.498" fill="#FFFFFF" width="0.601" height="2.099"/>
		<rect x="209.699" y="47.498" fill="#FFFFFF" width="5.515" height="2.099"/>
		<rect x="222.768" y="47.498" fill="#FFFFFF" width="57.231" height="2.099"/>
		<rect x="216.196" y="47.498" fill="#FFFFFF" width="5.784" height="2.099"/>
		<rect x="203.536" y="47.498" fill="#FFFFFF" width="4.812" height="2.099"/>
		<rect x="197.095" y="47.498" fill="#FFFFFF" width="4.177" height="2.099"/>
	</g>
	<g>
		<path fill="#FFFFFF" d="M174.119,55.247c1.175,0,1.991,0.281,2.45,0.848c0.459,0.565,0.688,1.597,0.688,3.094
			s-0.229,2.53-0.688,3.094c-0.458,0.565-1.275,0.849-2.45,0.849c-1.167,0-1.98-0.283-2.439-0.849
			c-0.459-0.563-0.688-1.598-0.688-3.094c0-1.498,0.229-2.528,0.688-3.094C172.139,55.528,172.951,55.247,174.119,55.247z
			 M174.119,56.425c-0.639,0-1.077,0.196-1.316,0.589c-0.239,0.394-0.358,1.117-0.358,2.175s0.119,1.782,0.358,2.175
			c0.239,0.394,0.677,0.589,1.316,0.589c0.646,0,1.088-0.195,1.327-0.589c0.239-0.393,0.358-1.118,0.358-2.175
			c0-1.058-0.12-1.781-0.358-2.175C175.207,56.621,174.764,56.425,174.119,56.425z"/>
		<path fill="#FFFFFF" d="M184.218,55.39v4.624c0,1.139-0.213,1.943-0.639,2.412c-0.426,0.47-1.16,0.703-2.202,0.703
			c-1.087,0-1.853-0.233-2.297-0.703c-0.444-0.469-0.666-1.273-0.666-2.412V55.39h1.377v4.624c0,0.728,0.111,1.233,0.335,1.515
			c0.224,0.283,0.622,0.424,1.194,0.424c0.565,0,0.959-0.141,1.18-0.424c0.22-0.283,0.329-0.787,0.329-1.515V55.39H184.218z"/>
		<path fill="#FFFFFF" d="M191.321,62.987h-1.466l-0.606-2.355c-0.139-0.455-0.433-0.683-0.88-0.683l-1.365-0.013v3.051h-1.366
			V55.39c0.653-0.065,1.575-0.1,2.764-0.1c0.963,0,1.644,0.16,2.043,0.479c0.401,0.318,0.601,0.9,0.601,1.745
			c0,0.587-0.11,1.037-0.33,1.35c-0.221,0.312-0.584,0.501-1.09,0.566v0.055c0.22,0.051,0.426,0.17,0.616,0.354
			c0.189,0.184,0.322,0.439,0.396,0.77L191.321,62.987z M187.004,58.814h1.365c0.492-0.008,0.827-0.096,1.007-0.265
			s0.27-0.484,0.27-0.946s-0.09-0.774-0.27-0.937s-0.517-0.242-1.007-0.242h-1.365V58.814z"/>
		<path fill="#FFFFFF" d="M200.174,55.39l-2.147,7.213c-0.074,0.257-0.242,0.385-0.506,0.385h-1.3c-0.117,0-0.223-0.034-0.313-0.104
			c-0.093-0.068-0.152-0.162-0.183-0.28l-2.157-7.213h1.419l1.554,5.704c0.021,0.087,0.055,0.229,0.099,0.423
			c0.044,0.195,0.077,0.337,0.1,0.425h0.275c0.044-0.235,0.113-0.517,0.209-0.848l1.531-5.704H200.174z"/>
		<path fill="#FFFFFF" d="M202.299,62.987h-1.377V55.39h1.377V62.987z"/>
		<path fill="#FFFFFF" d="M206.517,59.981l-1.531-0.484c-0.552-0.176-0.943-0.442-1.178-0.799c-0.235-0.355-0.353-0.822-0.353-1.403
			c0-0.829,0.192-1.377,0.578-1.641c0.385-0.265,1.062-0.397,2.032-0.397c0.932,0,1.729,0.085,2.39,0.254l-0.089,0.98
			c-0.837-0.029-1.59-0.044-2.257-0.044c-0.507,0-0.845,0.049-1.014,0.148c-0.168,0.099-0.253,0.339-0.253,0.722
			c0,0.315,0.061,0.538,0.181,0.665c0.122,0.129,0.344,0.244,0.667,0.348l1.465,0.451c0.58,0.184,0.985,0.454,1.216,0.81
			c0.232,0.355,0.348,0.823,0.348,1.403c0,0.837-0.199,1.401-0.595,1.691c-0.397,0.29-1.098,0.434-2.104,0.434
			c-0.836,0-1.658-0.079-2.466-0.243l0.089-1.012c1.284,0.028,2.088,0.045,2.411,0.045c0.507,0,0.844-0.059,1.014-0.177
			c0.168-0.117,0.252-0.367,0.252-0.749c0-0.323-0.056-0.547-0.17-0.671C207.035,60.187,206.823,60.077,206.517,59.981z"/>
		<path fill="#FFFFFF" d="M211.208,62.987h-1.377V55.39h1.377V62.987z"/>
		<path fill="#FFFFFF" d="M215.546,55.247c1.174,0,1.99,0.281,2.45,0.848c0.458,0.565,0.688,1.597,0.688,3.094
			s-0.229,2.53-0.688,3.094c-0.46,0.565-1.276,0.849-2.45,0.849c-1.168,0-1.981-0.283-2.438-0.849
			c-0.459-0.563-0.689-1.598-0.689-3.094c0-1.498,0.23-2.528,0.689-3.094C213.565,55.528,214.378,55.247,215.546,55.247z
			 M215.546,56.425c-0.64,0-1.078,0.196-1.316,0.589c-0.238,0.394-0.358,1.117-0.358,2.175s0.12,1.782,0.358,2.175
			c0.238,0.394,0.677,0.589,1.316,0.589c0.646,0,1.087-0.195,1.327-0.589c0.238-0.393,0.356-1.118,0.356-2.175
			c0-1.058-0.118-1.781-0.356-2.175C216.633,56.621,216.192,56.425,215.546,56.425z"/>
		<path fill="#FFFFFF" d="M226.073,55.39v7.091c0,0.339-0.17,0.507-0.507,0.507h-1.09c-0.265,0-0.456-0.139-0.574-0.418
			l-2.137-4.658c-0.256-0.551-0.407-0.929-0.451-1.134h-0.132c0.044,0.309,0.066,0.689,0.066,1.146v5.064h-1.354v-7.09
			c0-0.34,0.172-0.508,0.517-0.508h1.068c0.146,0,0.263,0.032,0.347,0.1c0.085,0.064,0.159,0.173,0.226,0.318l2.07,4.525
			c0.021,0.052,0.1,0.225,0.23,0.519c0.134,0.294,0.232,0.521,0.298,0.683h0.133c-0.037-0.463-0.055-0.874-0.055-1.233V55.39
			H226.073z"/>
		<path fill="#FFFFFF" d="M231.127,62.987h-1.377V55.39h1.377V62.987z"/>
		<path fill="#FFFFFF" d="M235.344,59.981l-1.53-0.484c-0.55-0.176-0.943-0.442-1.178-0.799c-0.235-0.355-0.353-0.822-0.353-1.403
			c0-0.829,0.193-1.377,0.578-1.641c0.385-0.265,1.062-0.397,2.031-0.397c0.933,0,1.729,0.085,2.391,0.254l-0.089,0.98
			c-0.837-0.029-1.589-0.044-2.257-0.044c-0.507,0-0.845,0.049-1.013,0.148c-0.169,0.099-0.254,0.339-0.254,0.722
			c0,0.315,0.061,0.538,0.183,0.665c0.12,0.129,0.343,0.244,0.665,0.348l1.465,0.451c0.58,0.184,0.985,0.454,1.216,0.81
			c0.232,0.355,0.348,0.823,0.348,1.403c0,0.837-0.199,1.401-0.595,1.691c-0.396,0.29-1.098,0.434-2.104,0.434
			c-0.836,0-1.659-0.079-2.467-0.243l0.089-1.012c1.284,0.028,2.089,0.045,2.41,0.045c0.508,0,0.845-0.059,1.015-0.177
			c0.168-0.117,0.254-0.367,0.254-0.749c0-0.323-0.058-0.547-0.172-0.671C235.864,60.187,235.653,60.077,235.344,59.981z"/>
		<path fill="#FFFFFF" d="M243.604,59.981l-1.53-0.484c-0.551-0.176-0.944-0.442-1.18-0.799c-0.234-0.355-0.352-0.822-0.352-1.403
			c0-0.829,0.193-1.377,0.578-1.641c0.386-0.265,1.062-0.397,2.031-0.397c0.933,0,1.729,0.085,2.39,0.254l-0.088,0.98
			c-0.836-0.029-1.589-0.044-2.256-0.044c-0.507,0-0.846,0.049-1.014,0.148c-0.168,0.099-0.254,0.339-0.254,0.722
			c0,0.315,0.061,0.538,0.183,0.665c0.122,0.129,0.343,0.244,0.667,0.348l1.464,0.451c0.579,0.184,0.985,0.454,1.217,0.81
			c0.23,0.355,0.346,0.823,0.346,1.403c0,0.837-0.197,1.401-0.595,1.691c-0.396,0.29-1.097,0.434-2.103,0.434
			c-0.837,0-1.659-0.079-2.466-0.243l0.088-1.012c1.284,0.028,2.088,0.045,2.41,0.045c0.508,0,0.845-0.059,1.013-0.177
			c0.169-0.117,0.254-0.367,0.254-0.749c0-0.323-0.057-0.547-0.17-0.671C244.122,60.187,243.911,60.077,243.604,59.981z"/>
		<path fill="#FFFFFF" d="M249.781,55.247c1.174,0,1.99,0.281,2.45,0.848c0.458,0.565,0.688,1.597,0.688,3.094
			s-0.229,2.53-0.688,3.094c-0.46,0.565-1.276,0.849-2.45,0.849c-1.168,0-1.981-0.283-2.44-0.849
			c-0.458-0.563-0.688-1.598-0.688-3.094c0-1.498,0.229-2.528,0.688-3.094C247.8,55.528,248.613,55.247,249.781,55.247z
			 M249.781,56.425c-0.64,0-1.078,0.196-1.316,0.589c-0.238,0.394-0.357,1.117-0.357,2.175s0.119,1.782,0.357,2.175
			c0.238,0.394,0.677,0.589,1.316,0.589c0.646,0,1.087-0.195,1.327-0.589c0.237-0.393,0.356-1.118,0.356-2.175
			c0-1.058-0.119-1.781-0.356-2.175C250.868,56.621,250.427,56.425,249.781,56.425z"/>
		<path fill="#FFFFFF" d="M259.878,55.39v4.624c0,1.139-0.213,1.943-0.639,2.412c-0.426,0.47-1.159,0.703-2.202,0.703
			c-1.087,0-1.852-0.233-2.296-0.703c-0.443-0.469-0.666-1.273-0.666-2.412V55.39h1.377v4.624c0,0.728,0.111,1.233,0.335,1.515
			c0.224,0.283,0.623,0.424,1.194,0.424c0.566,0,0.958-0.141,1.18-0.424c0.221-0.283,0.33-0.787,0.33-1.515V55.39H259.878z"/>
		<path fill="#FFFFFF" d="M267.477,55.39v7.091c0,0.339-0.168,0.507-0.506,0.507h-1.091c-0.264,0-0.456-0.139-0.572-0.418
			l-2.137-4.658c-0.256-0.551-0.407-0.929-0.451-1.134h-0.132c0.044,0.309,0.066,0.689,0.066,1.146v5.064h-1.355v-7.09
			c0-0.34,0.172-0.508,0.519-0.508h1.067c0.146,0,0.262,0.032,0.347,0.1c0.084,0.064,0.16,0.173,0.226,0.318l2.07,4.525
			c0.022,0.052,0.1,0.225,0.23,0.519c0.133,0.294,0.232,0.521,0.298,0.683h0.132c-0.036-0.463-0.055-0.874-0.055-1.233V55.39
			H267.477z"/>
		<path fill="#FFFFFF" d="M268.951,62.987V55.39c1.007-0.065,1.953-0.1,2.842-0.1c1.152,0,1.957,0.282,2.418,0.848
			c0.458,0.566,0.688,1.583,0.688,3.051c0,1.469-0.23,2.485-0.688,3.05c-0.461,0.566-1.266,0.849-2.418,0.849
			C270.904,63.087,269.958,63.054,268.951,62.987z M270.328,56.447v5.462c0.573,0.014,1.061,0.021,1.465,0.021
			c0.631,0,1.064-0.196,1.299-0.59c0.235-0.393,0.354-1.109,0.354-2.152c0-1.042-0.119-1.762-0.358-2.158
			c-0.238-0.397-0.67-0.596-1.294-0.596c-0.198,0-0.458,0.003-0.776,0.007C270.697,56.444,270.468,56.447,270.328,56.447z"/>
		<path fill="#FFFFFF" d="M276.393,57.278h-0.436v-1.768h-0.604v-0.387h1.653v0.387h-0.612L276.393,57.278L276.393,57.278z
			 M278.148,57.278l-0.552-1.622h-0.018l0.013,0.355v1.267h-0.422v-2.154h0.648l0.531,1.596l0.559-1.596h0.627v2.154h-0.439v-1.237
			l0.012-0.385h-0.017l-0.576,1.622H278.148z"/>
	</g>
	<path fill="#FFFFFF" d="M158.971,43.059c-0.516-0.375-1.039-0.562-1.569-0.562h-24.043c-0.719,0-1.226-0.141-1.522-0.422
		s-0.444-0.656-0.444-1.124c0-0.406,0.132-0.796,0.398-1.171c0.265-0.375,0.788-0.562,1.569-0.562h16.454
		c1.873,0,3.411-0.477,4.615-1.429c1.202-0.952,1.803-2.178,1.803-3.677v-6.138c0-0.749-0.172-1.436-0.516-2.062
		c-0.344-0.625-0.805-1.163-1.382-1.616c-0.579-0.453-1.257-0.803-2.038-1.054c-0.781-0.25-1.609-0.375-2.482-0.375h-28.858
		c-0.105,0-0.203,0.015-0.302,0.027c0.73,0.593,1.329,1.299,1.774,2.106c0.498,0.906,0.75,1.906,0.75,2.972v2.014h19.28
		c0.718,0,1.226,0.118,1.522,0.352c0.296,0.234,0.445,0.617,0.445,1.148c0,0.593-0.157,0.999-0.468,1.217
		c-0.313,0.219-0.813,0.328-1.5,0.328h-17.238c-0.721,0-1.4,0.083-2.042,0.241v1.774c0,1.002-0.213,1.95-0.635,2.817
		c-0.412,0.844-0.988,1.584-1.714,2.203c-0.075,0.064-0.156,0.122-0.234,0.182v3.449l2.322,2.831l0.024,0.034
		c0.232,0.309,0.432,0.609,0.596,0.895c0.296,0.521,0.437,1.009,0.437,1.501c0,0.183-0.022,0.37-0.065,0.556
		c0.424,0.065,0.861,0.101,1.311,0.101h32.135c0.593,0,1.139-0.202,1.64-0.609c0.499-0.405,0.75-0.874,0.75-1.404V44.37
		C159.743,43.871,159.485,43.433,158.971,43.059z"/>
</g>
</svg>
