<?xml version="1.0" encoding="utf-8"?>
<!-- Generator: Adobe Illustrator 24.0.2, SVG Export Plug-In . SVG Version: 6.00 Build 0)  -->
<svg version="1.1" id="Layer_1" xmlns="http://www.w3.org/2000/svg" xmlns:xlink="http://www.w3.org/1999/xlink" x="0px" y="0px"
	 viewBox="0 0 512 512" style="enable-background:new 0 0 512 512;" xml:space="preserve">
<style type="text/css">
	.st0{fill:#E7E7E7;}
	.st1{fill:#FFFFFF;}
</style>
<circle class="st0" cx="256" cy="256" r="256"/>
<g>
	<g>
		<path class="st1" d="M380.2,411.25c-8.58,0-15.52-6.94-15.52-15.52v-31.05c0-25.68-20.89-46.57-46.57-46.57H193.9
			c-25.68,0-46.57,20.89-46.57,46.57v31.05c0,8.58-6.95,15.52-15.52,15.52s-15.52-6.94-15.52-15.52v-31.05
			c0-42.8,34.82-77.62,77.62-77.62H318.1c42.8,0,77.62,34.82,77.62,77.62v31.05C395.72,404.31,388.78,411.25,380.2,411.25z"/>
	</g>
	<g>
		<path class="st1" d="M256,256c-42.8,0-77.62-34.82-77.62-77.62s34.82-77.62,77.62-77.62c42.79,0,77.62,34.82,77.62,77.62
			S298.8,256,256,256z M256,131.8c-25.68,0-46.57,20.89-46.57,46.57s20.89,46.57,46.57,46.57c25.68,0,46.57-20.89,46.57-46.57
			S281.68,131.8,256,131.8z"/>
	</g>
</g>
</svg>
